<svg width="29" height="29" viewBox="0 0 29 29" fill="none" xmlns="http://www.w3.org/2000/svg">
<path d="M22.9583 26.5833H6.04167C4.70698 26.5833 3.625 25.5013 3.625 24.1667V7.24999C3.625 5.9153 4.70698 4.83332 6.04167 4.83332H8.45833V2.41666H10.875V4.83332H18.125V2.41666H20.5417V4.83332H22.9583C24.293 4.83332 25.375 5.9153 25.375 7.24999V24.1667C25.375 25.5013 24.293 26.5833 22.9583 26.5833ZM6.04167 12.0833V24.1667H22.9583V12.0833H6.04167ZM6.04167 7.24999V9.66666H22.9583V7.24999H6.04167ZM20.5417 21.75H18.125V19.3333H20.5417V21.75ZM15.7083 21.75H13.2917V19.3333H15.7083V21.75ZM10.875 21.75H8.45833V19.3333H10.875V21.75ZM20.5417 16.9167H18.125V14.5H20.5417V16.9167ZM15.7083 16.9167H13.2917V14.5H15.7083V16.9167ZM10.875 16.9167H8.45833V14.5H10.875V16.9167Z" fill="#5F5F5F"/>
</svg>
