<svg width="21" height="25" viewBox="0 0 21 25" fill="none" xmlns="http://www.w3.org/2000/svg">
<path d="M10.5 24.5833C9.16529 24.5833 8.08331 23.5013 8.08331 22.1667H12.9166C12.9166 23.5013 11.8347 24.5833 10.5 24.5833ZM20.1666 20.9583H0.833313V18.5417L3.24998 17.3333V10.6875C3.24998 6.50424 4.96702 3.79153 8.08331 3.05082V0.416656H12.9166V3.05082C16.0329 3.79032 17.75 6.50182 17.75 10.6875V17.3333L20.1666 18.5417V20.9583ZM10.5 4.94791C9.02541 4.85269 7.60334 5.51253 6.72394 6.69999C5.97181 7.88966 5.60277 9.28145 5.66665 10.6875V18.5417H15.3333V10.6875C15.3971 9.28146 15.0281 7.88969 14.276 6.69999C13.3966 5.51253 11.9745 4.85269 10.5 4.94791Z" fill="#5F5F5F"/>
</svg>
