<svg width="212" height="212" viewBox="0 0 212 212" fill="none" xmlns="http://www.w3.org/2000/svg">
<path d="M94.38 108.572C92.73 107.912 91.74 105.932 92.4 104.282C93.06 102.962 94.05 102.302 95.37 102.302L171.93 99.0019L169.29 83.4919L166.98 84.4819L160.38 91.0819C157.74 93.7219 153.78 94.7119 150.48 93.3919C141.24 90.0919 131.67 87.1219 122.43 84.8119C120.78 84.8119 119.46 84.1519 118.47 82.8319C117.81 81.8419 116.82 79.8619 120.78 72.9319L120.12 72.6019L115.5 80.5219C112.53 84.8119 105.27 89.7619 93.72 94.7119C78.87 101.312 63.03 105.602 47.1881 108.242C42.8981 108.572 38.9381 109.892 34.9781 111.872L96.6863 109.232L94.38 108.572Z" fill="black"/>
<path d="M40.92 124.412C74.91 149.492 160.38 135.632 178.2 132.332L176.22 122.762C121.112 138.932 64.3519 129.692 40.92 124.412Z" fill="black"/>
<path d="M113.52 109.228C115.17 109.888 116.16 111.868 115.5 113.518C114.84 114.838 113.52 115.498 112.2 115.498L43.5601 118.138C67.6501 123.418 122.1 131.998 174.9 115.828L173.25 105.598L111.21 108.238L113.52 109.228Z" fill="black"/>
<path d="M105.6 0C47.1881 0 0 47.1881 0 105.6C0 164.012 47.1881 211.2 105.6 211.2C164.012 211.2 211.2 164.012 211.2 105.6C211.2 47.1881 164.012 0 105.6 0ZM185.132 134.308C185.462 135.958 184.472 137.938 182.492 138.268C157.742 143.218 132.664 145.858 107.584 145.858C75.2438 145.858 41.5838 140.248 27.3957 120.448C25.7457 117.808 25.4157 114.508 26.7357 111.868C29.0457 106.918 35.3157 103.618 46.2057 102.298C61.7157 99.6581 76.8957 95.3681 91.0857 89.0981C104.946 82.8281 108.906 78.8681 109.896 77.2181L116.496 67.3181C117.486 65.9981 119.136 65.6681 120.786 66.3281L127.386 69.6281C129.036 70.2881 129.696 72.2681 129.036 73.9181V74.2481C128.046 75.8981 127.056 77.5481 126.066 79.5281C129.366 80.1881 136.626 82.4981 153.126 87.7781C154.446 88.1081 155.436 87.7781 156.426 86.7881L163.356 79.8581C163.686 79.5281 164.016 79.5281 164.346 79.1981L170.946 75.8981C172.596 74.9081 174.576 75.5681 175.236 77.2181C175.236 77.5481 175.566 77.8781 175.566 78.2081L182.166 117.808L185.132 134.308Z" fill="black"/>
<path d="M78.792 184.248H79.488C79.808 184.248 80.032 184.176 80.16 184.032C80.304 183.888 80.376 183.656 80.376 183.336V173.136C80.376 172.816 80.304 172.584 80.16 172.44C80.032 172.296 79.808 172.224 79.488 172.224H78.792V170.472H83.088L87.312 180.24L91.512 170.472H95.808V172.224H95.088C94.784 172.224 94.56 172.296 94.416 172.44C94.288 172.584 94.224 172.816 94.224 173.136V183.336C94.224 183.656 94.288 183.888 94.416 184.032C94.56 184.176 94.784 184.248 95.088 184.248H95.808V186H90.12V184.248H90.84C91.144 184.248 91.36 184.184 91.488 184.056C91.632 183.912 91.704 183.68 91.704 183.36V174.672L88.272 182.664H86.328L82.872 174.672V183.36C82.872 183.664 82.944 183.888 83.088 184.032C83.232 184.176 83.456 184.248 83.76 184.248H84.48V186H78.792V184.248ZM103.568 186.36C101.152 186.36 99.3604 185.696 98.1924 184.368C97.0244 183.024 96.4404 181 96.4404 178.296C96.4404 175.56 97.0084 173.512 98.1444 172.152C99.2964 170.792 101.104 170.112 103.568 170.112C106.016 170.112 107.808 170.792 108.944 172.152C110.096 173.512 110.672 175.56 110.672 178.296C110.672 181 110.088 183.024 108.92 184.368C107.752 185.696 105.968 186.36 103.568 186.36ZM103.568 184.584C105.136 184.584 106.296 184.096 107.048 183.12C107.8 182.144 108.176 180.536 108.176 178.296C108.176 176.008 107.8 174.368 107.048 173.376C106.312 172.384 105.152 171.888 103.568 171.888C101.968 171.888 100.792 172.384 100.04 173.376C99.3044 174.368 98.9364 176.008 98.9364 178.296C98.9364 180.536 99.3124 182.144 100.064 183.12C100.816 184.096 101.984 184.584 103.568 184.584ZM116.245 186.36C114.197 186.36 112.629 185.752 111.541 184.536V182.616H113.845V183.768C114.373 184.312 115.117 184.584 116.077 184.584C116.909 184.584 117.517 184.376 117.901 183.96C118.285 183.528 118.477 182.88 118.477 182.016V173.112C118.477 172.808 118.405 172.592 118.261 172.464C118.117 172.32 117.893 172.248 117.589 172.248H116.869V170.472H122.581V172.248H121.885C121.581 172.248 121.357 172.32 121.213 172.464C121.069 172.592 120.997 172.808 120.997 173.112V181.656C120.997 183.144 120.589 184.304 119.773 185.136C118.957 185.952 117.781 186.36 116.245 186.36ZM130.217 186.36C127.801 186.36 126.009 185.696 124.841 184.368C123.673 183.024 123.089 181 123.089 178.296C123.089 175.56 123.657 173.512 124.793 172.152C125.945 170.792 127.753 170.112 130.217 170.112C132.665 170.112 134.457 170.792 135.593 172.152C136.745 173.512 137.321 175.56 137.321 178.296C137.321 181 136.737 183.024 135.569 184.368C134.401 185.696 132.617 186.36 130.217 186.36ZM130.217 184.584C131.785 184.584 132.945 184.096 133.697 183.12C134.449 182.144 134.825 180.536 134.825 178.296C134.825 176.008 134.449 174.368 133.697 173.376C132.961 172.384 131.801 171.888 130.217 171.888C128.617 171.888 127.441 172.384 126.689 173.376C125.953 174.368 125.585 176.008 125.585 178.296C125.585 180.536 125.961 182.144 126.713 183.12C127.465 184.096 128.633 184.584 130.217 184.584Z" fill="white"/>
</svg>
